HIERARCHY
ROOT Hips
{
	OFFSET	0.000000	0.000000	0.000000
	CHANNELS 6 Xposition Yposition Zposition Zrotation Xrotation Yrotation
	JOINT LeftHip
	{
		OFFSET	4.740440	-3.195970	-0.322709
		CHANNELS 3 Zrotation Xrotation Yrotation
		JOINT LeftKnee
		{
			OFFSET	-1.605680	-15.592300	1.005510
			CHANNELS 3 Zrotation Xrotation Yrotation
			JOINT LeftAnkle
			{
				OFFSET	-0.632401	-16.421000	-1.413730
				CHANNELS 3 Zrotation Xrotation Yrotation
				End Site
				{
					OFFSET	0.008423	-3.933000	-2.776750
				}
			}
		}
	}
	JOINT RightHip
	{
		OFFSET	-4.740440	-3.195970	-0.322709
		CHANNELS 3 Zrotation Xrotation Yrotation
		JOINT RightKnee
		{
			OFFSET	1.605680	-15.592300	1.005510
			CHANNELS 3 Zrotation Xrotation Yrotation
			JOINT RightAnkle
			{
				OFFSET	0.632401	-16.421000	-1.413730
				CHANNELS 3 Zrotation Xrotation Yrotation
				End Site
				{
					OFFSET	-0.008423	-3.933000	-2.776750
				}
			}
		}
	}
	JOINT Chest
	{
		OFFSET	0.000000	3.468200	0.078401
		CHANNELS 3 Zrotation Xrotation Yrotation
		JOINT LeftCollar
		{
			OFFSET	3.857650	15.070700	-0.011583
			CHANNELS 3 Zrotation Xrotation Yrotation
			JOINT LeftShoulder
			{
				OFFSET	3.979720	-1.940530	-0.165223
				CHANNELS 3 Zrotation Xrotation Yrotation
				JOINT LeftElbow
				{
					OFFSET	0.615844	-10.986600	-0.673886
					CHANNELS 3 Zrotation Xrotation Yrotation
					JOINT LeftWrist
					{
						OFFSET	0.826843	-10.854500	1.034220
						CHANNELS 3 Zrotation Xrotation Yrotation
						End Site
						{
							OFFSET	-1.679080	-8.456540	0.936217
						}
					}
				}
			}
		}
		JOINT RightCollar
		{
			OFFSET	-3.857650	15.070700	-0.011583
			CHANNELS 3 Zrotation Xrotation Yrotation
			JOINT RightShoulder
			{
				OFFSET	-3.979720	-1.940530	-0.165223
				CHANNELS 3 Zrotation Xrotation Yrotation
				JOINT RightElbow
				{
					OFFSET	-0.615845	-10.986600	-0.673886
					CHANNELS 3 Zrotation Xrotation Yrotation
					JOINT RightWrist
					{
						OFFSET	-0.826843	-10.854500	1.034220
						CHANNELS 3 Zrotation Xrotation Yrotation
						End Site
						{
							OFFSET	1.679080	-8.456540	0.936217
						}
					}
				}
			}
		}
		JOINT Neck
		{
			OFFSET	0.000000	15.101400	0.055730
			CHANNELS 3 Zrotation Xrotation Yrotation
			JOINT Head
			{
				OFFSET	0.000000	4.185120	1.488260
				CHANNELS 3 Zrotation Xrotation Yrotation
				End Site
				{
					OFFSET	0.000000	7.773420	-0.106016
				}
			}
		}
	}
}
MOTION
Frames:    17
Frame Time: 0.016667
-10.722416	28.104895	18.285603	1.794993	-38.276615	6.978355	40.566620	-18.185999	19.626656	-50.825111	74.331276	34.503895	7.019983	-13.519117	6.825727	-27.920759	-20.747490	-25.080757	67.731827	84.091301	-52.356838	-11.381548	-19.026020	-7.463460	7.242374	46.885300	-2.821509	0.000864	2.574179	0.514193	28.188021	-15.842730	-2.180842	-36.708260	-21.868593	-52.774448	49.057835	-23.016932	-0.541719	-4.922077	3.075717	7.565332	-10.277933	-10.706191	-12.065543	11.330664	-42.306931	10.314382	-25.020102	-19.571119	2.377418	-2.623749	5.053326	-14.173067	-0.018252	1.663106	-22.426559	
-10.722416	28.104895	18.285603	1.794993	-38.276615	6.978355	40.566620	-18.185999	19.626656	-50.825111	74.331276	34.503895	7.019983	-13.519117	6.825727	-27.931799	-20.744671	-25.087133	67.749657	84.094254	-52.364182	-11.381548	-19.026020	-7.463460	7.210918	46.871429	-2.785102	0.028558	2.579090	0.488774	28.187645	-15.845766	-2.172961	-36.657253	-21.844536	-52.736816	49.052853	-23.058018	-0.467693	-4.871669	3.077974	7.551797	-10.273053	-10.794117	-12.042920	11.256740	-42.192451	10.165443	-25.076414	-19.289700	2.343955	-2.571111	5.119068	-13.906410	-0.486655	1.541326	-22.421989	
-10.722416	28.104895	18.285603	1.794993	-38.276615	6.978355	40.566620	-18.185999	19.626656	-50.825111	74.331276	34.503895	7.019983	-13.519117	6.825727	-27.942459	-20.741945	-25.093296	67.766853	84.097107	-52.371212	-11.381548	-19.026020	-7.463460	7.179991	46.857624	-2.749753	0.052065	2.571397	0.453378	28.192284	-15.833138	-2.161250	-36.615330	-21.821756	-52.703568	49.047100	-23.090027	-0.422417	-4.821122	3.078938	7.539678	-10.264781	-10.893681	-12.017535	11.120111	-42.103249	10.073915	-25.076694	-19.050714	2.339533	-2.528019	5.164676	-13.714369	-0.993527	1.400428	-22.239090	
-10.722416	28.104895	18.285603	1.794993	-38.276615	6.978355	40.566620	-18.185999	19.626656	-50.825111	74.331276	34.503895	7.019983	-13.519117	6.825727	-27.948471	-20.740408	-25.096764	67.776581	84.098770	-52.375256	-11.381548	-19.026020	-7.463460	7.149264	46.843491	-2.716039	0.074057	2.570609	0.426306	28.197420	-15.829671	-2.152475	-36.595230	-21.802889	-52.681648	49.016670	-23.103384	-0.429899	-4.769255	3.078962	7.529327	-10.248636	-10.985158	-12.029427	10.949156	-42.028763	9.960987	-25.003706	-18.905327	2.380044	-2.489102	5.205412	-13.553640	-1.647871	1.326296	-21.904293	
-10.722416	28.104895	18.285603	1.794993	-38.276615	6.978355	40.566620	-18.185999	19.626656	-50.825111	74.331276	34.503895	7.019983	-13.519117	6.825727	-27.953823	-20.739046	-25.099854	67.785286	84.100204	-52.378838	-11.381548	-19.026020	-7.463460	7.119002	46.828964	-2.684834	0.095339	2.568458	0.399894	28.203156	-15.824664	-2.143078	-36.561440	-21.780903	-52.652561	49.008545	-23.126808	-0.409835	-4.716457	3.077809	7.521699	-10.187354	-11.035889	-12.105417	10.832432	-41.962795	9.887660	-24.914385	-18.926575	2.457880	-2.403816	5.257208	-13.318437	-2.432284	1.261333	-21.553696	
-10.722416	28.104895	18.285603	1.794993	-38.276615	6.978355	40.566620	-18.185999	19.626656	-50.825111	74.331276	34.503895	7.019983	-13.519117	6.825727	-27.958363	-20.737879	-25.102491	67.792519	84.101433	-52.381763	-11.381548	-19.026020	-7.463460	7.087967	46.813602	-2.654351	0.102515	2.625892	0.346007	28.238567	-15.858736	-2.077757	-36.511436	-21.758976	-52.672729	48.940029	-23.079473	-0.580011	-4.660883	3.076867	7.514746	-10.128727	-11.056109	-12.191219	10.816011	-42.001041	9.852305	-24.923899	-18.937250	2.413503	-2.346938	5.325927	-12.994720	-3.268882	1.274684	-21.136040	
-10.722416	28.104895	18.285603	1.794993	-38.276615	6.978355	40.566620	-18.185999	19.626656	-50.825111	74.331276	34.503895	7.019983	-13.519117	6.825727	-27.959078	-20.737698	-25.102898	67.793716	84.101631	-52.382282	-11.381548	-19.026020	-7.463460	7.056894	46.797722	-2.625514	0.077203	2.585882	0.188615	28.320852	-15.757967	-1.962740	-36.485199	-21.749527	-52.758289	48.681992	-23.023584	-1.052369	-4.602590	3.076365	7.508079	-10.108670	-11.071021	-12.311053	10.963819	-41.966297	9.888977	-25.199745	-19.037874	2.014626	-2.323367	5.398355	-12.670768	-4.144142	1.385743	-20.636492	
-10.722416	28.104895	18.285603	1.794993	-38.276615	6.978355	40.566620	-18.185999	19.626656	-50.825111	74.331276	34.503895	7.019983	-13.519117	6.825727	-27.960339	-20.738289	-25.098841	67.820282	84.097839	-52.408165	-11.381548	-19.026020	-7.463460	7.042616	46.768101	-2.619892	0.103540	2.595550	0.166296	28.312693	-15.752344	-1.945870	-36.399853	-21.854389	-52.953522	48.132462	-22.964865	-1.773537	-4.523878	3.109837	7.530842	-10.147028	-11.054009	-12.445908	11.225731	-42.000851	9.903475	-25.479254	-19.093340	1.375914	-2.393325	5.678122	-12.471263	-4.912366	1.469519	-19.875822	
-10.722416	28.104895	18.285603	1.794993	-38.276615	6.978355	40.566620	-18.185999	19.626656	-50.825111	74.331276	34.503895	7.019983	-13.519117	6.825727	-27.965021	-20.739740	-25.082315	67.918167	84.082184	-52.503227	-11.381548	-19.026020	-7.463460	7.025373	46.686596	-2.614609	0.097698	2.608548	0.210558	28.344028	-15.820748	-1.936594	-36.321247	-21.956280	-53.151508	47.390179	-22.892435	-2.597258	-4.470771	3.271990	7.617640	-10.156318	-11.097319	-12.596328	11.497729	-42.107765	9.766653	-25.781193	-19.075003	0.550708	-2.474224	5.887155	-12.323541	-5.659187	1.795161	-19.056967	
-10.722416	28.104895	18.285603	1.794993	-38.276615	6.978355	40.566620	-18.185999	19.626656	-50.825111	74.331276	34.503895	7.019983	-13.519117	6.825727	-27.968178	-20.740679	-25.070955	67.984383	84.071434	-52.567497	-11.381548	-19.026020	-7.463460	6.853748	46.567936	-2.540685	0.194661	2.661741	0.299888	28.380896	-15.903798	-1.903451	-36.274063	-22.048216	-53.289337	46.622955	-22.816412	-3.404187	-4.295698	3.509500	7.782537	-10.278419	-11.136771	-12.844718	11.931251	-42.316513	9.734299	-26.066170	-18.971418	-0.461317	-2.405709	5.911432	-12.067411	-6.322963	2.470798	-18.319208	
-10.722416	28.104895	18.285603	1.794993	-38.276615	6.978355	40.566620	-18.185999	19.626656	-50.825111	74.331276	34.503895	7.019983	-13.519117	6.825727	-27.969700	-20.741135	-25.065517	68.016098	84.066277	-52.598289	-11.381548	-19.026020	-7.463460	6.684869	46.456646	-2.469918	0.304682	2.774539	0.354969	28.417070	-16.011908	-1.800535	-36.255444	-22.093287	-53.402584	45.965557	-22.743435	-4.156700	-4.102863	3.763027	7.968057	-10.537319	-11.126471	-13.106748	12.441715	-42.615093	9.813923	-26.094717	-18.724113	-1.545405	-2.260880	6.047006	-11.617963	-6.815348	3.114707	-17.940535	
-10.722416	28.104895	18.285603	1.794993	-38.276615	6.978355	40.566620	-18.185999	19.626656	-50.825111	74.331276	34.503895	7.019983	-13.519117	6.825727	-27.972788	-20.742096	-25.054554	68.080284	84.055847	-52.660572	-11.381548	-19.026020	-7.463460	6.495873	46.345299	-2.344111	0.426090	2.796218	0.430041	28.436317	-16.077496	-1.770145	-36.248455	-22.136137	-53.515163	45.300709	-22.707767	-4.877348	-3.905482	4.003022	8.098718	-10.882795	-11.142074	-13.275695	12.915550	-42.888317	9.894911	-26.157003	-18.498035	-2.634054	-2.090482	6.335444	-11.215247	-7.051469	3.699756	-17.671625	
-10.722416	28.104895	18.285603	1.794993	-38.276615	6.978355	40.566620	-18.185999	19.626656	-50.825111	74.331276	34.503895	7.019983	-13.519117	6.825727	-27.975714	-20.743017	-25.044157	68.141022	84.045967	-52.719521	-11.381548	-19.026020	-7.463460	6.324473	46.233166	-2.265375	0.466375	2.853841	0.451037	28.538872	-16.095406	-1.607055	-36.252003	-22.186787	-53.670761	44.580864	-22.690420	-5.603597	-3.795338	4.151815	8.217228	-11.251762	-11.118027	-13.356981	13.413101	-43.103302	9.919251	-26.124153	-18.175280	-3.903038	-1.862647	6.546025	-10.919483	-7.181693	4.396456	-17.402550	
-10.722416	28.104895	18.285603	1.794993	-38.276615	6.978355	40.566620	-18.185999	19.626656	-50.825111	74.331276	34.503895	7.019983	-13.519117	6.825727	-27.980061	-20.744385	-25.028793	68.230606	84.031364	-52.806503	-11.381548	-19.026020	-7.463460	6.163891	46.125168	-2.199131	0.458564	2.881146	0.454077	28.673790	-16.037186	-1.387699	-36.272789	-22.318443	-53.785305	43.731800	-22.725698	-6.423980	-3.718097	4.244300	8.290213	-11.636669	-11.197561	-13.438090	13.878406	-43.165104	9.931530	-25.991207	-17.873922	-5.389935	-1.692738	6.629920	-10.518359	-7.118989	5.260043	-17.290155	
-10.722528	28.105082	18.285784	1.794993	-38.276615	6.978355	40.566521	-18.184690	19.630779	-50.812607	74.333687	34.490540	7.019983	-13.519117	6.825727	-27.984249	-20.750483	-25.019670	68.332855	84.024239	-52.908318	-11.381548	-19.026020	-7.463460	6.049222	46.046810	-2.154286	0.385459	2.915581	0.385957	28.855995	-15.937782	-1.135378	-36.276360	-22.586052	-53.837070	42.786301	-22.760002	-7.265971	-3.694759	4.290659	8.371884	-11.996078	-11.275538	-13.633979	14.317993	-43.229057	9.891306	-25.691936	-17.690454	-6.824754	-1.464732	6.552570	-10.005629	-6.956802	6.220297	-17.408247	
-10.722827	28.105619	18.286301	1.794993	-38.276615	6.978355	40.566170	-18.180984	19.642218	-50.777557	74.340370	34.453171	7.019983	-13.519117	6.825727	-27.987055	-20.757153	-25.016397	68.410988	84.022858	-52.987335	-11.381548	-19.026020	-7.463460	5.896330	45.958935	-2.040478	0.314988	3.009523	0.267996	29.061567	-15.833160	-0.845658	-36.277466	-23.019926	-53.769398	41.643330	-22.880342	-8.276070	-3.621323	4.324289	8.321523	-12.328829	-11.481673	-13.709250	14.515429	-43.196346	9.706363	-25.249010	-17.520548	-8.516316	-1.300013	6.612944	-9.950110	-6.554784	7.007564	-17.248095	
-10.723324	28.106369	18.287802	1.802067	-38.276512	6.992619	40.557667	-18.182817	19.646702	-50.738316	74.347809	34.411335	7.019983	-13.519117	6.825727	-28.001234	-20.764961	-25.019220	68.562080	84.020370	-53.140095	-11.381548	-19.026020	-7.463460	5.850757	45.923893	-2.035207	0.185475	3.072520	0.164193	29.232466	-15.633512	-0.544261	-36.273861	-23.644533	-53.646988	40.345501	-23.027515	-9.492620	-3.619123	4.291458	8.265550	-12.645090	-11.746367	-13.761361	14.682941	-43.173550	9.439546	-24.856428	-17.466251	-10.024731	-1.178789	6.640880	-9.948696	-6.103040	7.749462	-17.049265	
